# xmcd
#
# Track frame offsets: 
#        182
#        21550
#        39352
#        60652
#        91410
#        125405
#        137162
#        163465
#        181667
#        208275
#
# Disc length: 2978 seconds
#
# Revision: 3
# Processed by: cddbd v1.5.1PL2 Copyright (c) Steve Scherf et al.
# Submitted via: ExactAudioCopy v0.95b4
#
DISCID=910ba00a
DTITLE=Junior Kimbrough - All Night Long
DYEAR=1992
DGENRE=Blues
TTITLE0=Work Me Baby
TTITLE1=Do The Romp
TTITLE2=Stay All Night
TTITLE3=Meet Me In The City
TTITLE4=You Better Run
TTITLE5=Done Got Old
TTITLE6=All Night Long
TTITLE7=I Feel Alright
TTITLE8=Nobody But You
TTITLE9=Slow Lightnin'
EXTD=
EXTT0=
EXTT1=
EXTT2=
EXTT3=
EXTT4=
EXTT5=
EXTT6=
EXTT7=
EXTT8=
EXTT9=
PLAYORDER=
